<mxfile host="Electron" modified="2024-04-27T15:54:43.911Z" agent="Mozilla/5.0 (Windows NT 10.0; Win64; x64) AppleWebKit/537.36 (KHTML, like Gecko) draw.io/24.2.5 Chrome/120.0.6099.109 Electron/28.1.0 Safari/537.36" etag="fKFvazWdqbg8pKU0MApA" version="24.2.5" type="device">
  <diagram name="Page-1" id="42789a77-a242-8287-6e28-9cd8cfd52e62">
    <mxGraphModel dx="1050" dy="621" grid="1" gridSize="10" guides="1" tooltips="1" connect="1" arrows="1" fold="1" page="1" pageScale="1" pageWidth="1100" pageHeight="850" background="none" math="0" shadow="0">
      <root>
        <mxCell id="0" />
        <mxCell id="1" parent="0" />
        <mxCell id="1ea317790d2ca983-15" value="" style="edgeStyle=none;rounded=1;html=1;labelBackgroundColor=none;startArrow=none;startFill=0;startSize=5;endArrow=classicThin;endFill=1;endSize=5;jettySize=auto;orthogonalLoop=1;strokeWidth=1;fontFamily=Verdana;fontSize=12" parent="1" source="1ea317790d2ca983-3" target="1ea317790d2ca983-4" edge="1">
          <mxGeometry x="0.1111" y="20" relative="1" as="geometry">
            <mxPoint as="offset" />
          </mxGeometry>
        </mxCell>
        <mxCell id="1ea317790d2ca983-3" value="&lt;span style=&quot;font-size:10.0pt;line-height:&lt;br/&gt;107%;font-family:&amp;quot;Aptos&amp;quot;,sans-serif;mso-ascii-theme-font:minor-latin;&lt;br/&gt;mso-fareast-font-family:Aptos;mso-fareast-theme-font:minor-latin;mso-hansi-theme-font:&lt;br/&gt;minor-latin;mso-bidi-font-family:&amp;quot;Times New Roman&amp;quot;;mso-bidi-theme-font:minor-bidi;&lt;br/&gt;mso-ansi-language:CS;mso-fareast-language:EN-US;mso-bidi-language:AR-SA&quot; lang=&quot;CS&quot;&gt;WAIT_FOR_START/&lt;br&gt;0 0 0&lt;/span&gt;" style="ellipse;whiteSpace=wrap;html=1;rounded=0;shadow=1;comic=0;labelBackgroundColor=none;strokeWidth=1;fontFamily=Verdana;fontSize=12;align=center;" parent="1" vertex="1">
          <mxGeometry x="120" y="250" width="160" height="100" as="geometry" />
        </mxCell>
        <mxCell id="qXNxSR6KpyAMt4ffWlAI-3" style="rounded=0;orthogonalLoop=1;jettySize=auto;html=1;exitX=1;exitY=0.5;exitDx=0;exitDy=0;entryX=0;entryY=0.5;entryDx=0;entryDy=0;" parent="1" source="1ea317790d2ca983-4" target="qXNxSR6KpyAMt4ffWlAI-4" edge="1">
          <mxGeometry relative="1" as="geometry">
            <mxPoint x="740" y="299.41" as="targetPoint" />
            <mxPoint x="610" y="299.41" as="sourcePoint" />
          </mxGeometry>
        </mxCell>
        <mxCell id="1ea317790d2ca983-4" value="&lt;span style=&quot;font-size:10.0pt;line-height:&lt;br/&gt;107%;font-family:&amp;quot;Aptos&amp;quot;,sans-serif;mso-ascii-theme-font:minor-latin;&lt;br/&gt;mso-fareast-font-family:Aptos;mso-fareast-theme-font:minor-latin;mso-hansi-theme-font:&lt;br/&gt;minor-latin;mso-bidi-font-family:&amp;quot;Times New Roman&amp;quot;;mso-bidi-theme-font:minor-bidi;&lt;br/&gt;mso-ansi-language:CS;mso-fareast-language:EN-US;mso-bidi-language:AR-SA&quot; lang=&quot;CS&quot;&gt;WAIT_INITIAL/&lt;/span&gt;&lt;div&gt;&lt;span style=&quot;font-size:10.0pt;line-height:&lt;br/&gt;107%;font-family:&amp;quot;Aptos&amp;quot;,sans-serif;mso-ascii-theme-font:minor-latin;&lt;br/&gt;mso-fareast-font-family:Aptos;mso-fareast-theme-font:minor-latin;mso-hansi-theme-font:&lt;br/&gt;minor-latin;mso-bidi-font-family:&amp;quot;Times New Roman&amp;quot;;mso-bidi-theme-font:minor-bidi;&lt;br/&gt;mso-ansi-language:CS;mso-fareast-language:EN-US;mso-bidi-language:AR-SA&quot; lang=&quot;CS&quot;&gt;1 0 0&lt;/span&gt;&lt;/div&gt;" style="ellipse;whiteSpace=wrap;html=1;rounded=0;shadow=1;comic=0;labelBackgroundColor=none;strokeWidth=1;fontFamily=Verdana;fontSize=12;align=center;" parent="1" vertex="1">
          <mxGeometry x="440" y="250" width="160" height="100" as="geometry" />
        </mxCell>
        <mxCell id="qXNxSR6KpyAMt4ffWlAI-16" style="rounded=0;orthogonalLoop=1;jettySize=auto;html=1;exitX=0.5;exitY=1;exitDx=0;exitDy=0;entryX=1;entryY=0;entryDx=0;entryDy=0;" parent="1" source="qXNxSR6KpyAMt4ffWlAI-4" target="qXNxSR6KpyAMt4ffWlAI-14" edge="1">
          <mxGeometry relative="1" as="geometry" />
        </mxCell>
        <mxCell id="qXNxSR6KpyAMt4ffWlAI-4" value="&lt;span style=&quot;font-size:10.0pt;line-height:&lt;br/&gt;107%;font-family:&amp;quot;Aptos&amp;quot;,sans-serif;mso-ascii-theme-font:minor-latin;&lt;br/&gt;mso-fareast-font-family:Aptos;mso-fareast-theme-font:minor-latin;mso-hansi-theme-font:&lt;br/&gt;minor-latin;mso-bidi-font-family:&amp;quot;Times New Roman&amp;quot;;mso-bidi-theme-font:minor-bidi;&lt;br/&gt;mso-ansi-language:CS;mso-fareast-language:EN-US;mso-bidi-language:AR-SA&quot; lang=&quot;CS&quot;&gt;DATA_READ/&lt;/span&gt;&lt;div&gt;&lt;span style=&quot;font-size:10.0pt;line-height:&lt;br/&gt;107%;font-family:&amp;quot;Aptos&amp;quot;,sans-serif;mso-ascii-theme-font:minor-latin;&lt;br/&gt;mso-fareast-font-family:Aptos;mso-fareast-theme-font:minor-latin;mso-hansi-theme-font:&lt;br/&gt;minor-latin;mso-bidi-font-family:&amp;quot;Times New Roman&amp;quot;;mso-bidi-theme-font:minor-bidi;&lt;br/&gt;mso-ansi-language:CS;mso-fareast-language:EN-US;mso-bidi-language:AR-SA&quot; lang=&quot;CS&quot;&gt;1 1 0&lt;/span&gt;&lt;/div&gt;" style="ellipse;whiteSpace=wrap;html=1;rounded=0;shadow=1;comic=0;labelBackgroundColor=none;strokeWidth=1;fontFamily=Verdana;fontSize=12;align=center;" parent="1" vertex="1">
          <mxGeometry x="760" y="250" width="160" height="100" as="geometry" />
        </mxCell>
        <mxCell id="qXNxSR6KpyAMt4ffWlAI-17" style="edgeStyle=orthogonalEdgeStyle;rounded=0;orthogonalLoop=1;jettySize=auto;html=1;exitX=0;exitY=0.5;exitDx=0;exitDy=0;entryX=1;entryY=0.5;entryDx=0;entryDy=0;" parent="1" source="qXNxSR6KpyAMt4ffWlAI-14" target="qXNxSR6KpyAMt4ffWlAI-15" edge="1">
          <mxGeometry relative="1" as="geometry" />
        </mxCell>
        <mxCell id="qXNxSR6KpyAMt4ffWlAI-14" value="&lt;span style=&quot;font-size:10.0pt;line-height:&lt;br/&gt;107%;font-family:&amp;quot;Aptos&amp;quot;,sans-serif;mso-ascii-theme-font:minor-latin;&lt;br/&gt;mso-fareast-font-family:Aptos;mso-fareast-theme-font:minor-latin;mso-hansi-theme-font:&lt;br/&gt;minor-latin;mso-bidi-font-family:&amp;quot;Times New Roman&amp;quot;;mso-bidi-theme-font:minor-bidi;&lt;br/&gt;mso-ansi-language:CS;mso-fareast-language:EN-US;mso-bidi-language:AR-SA&quot; lang=&quot;CS&quot;&gt;WAIT_FOR_END/&lt;/span&gt;&lt;div&gt;&lt;span style=&quot;font-size:10.0pt;line-height:&lt;br/&gt;107%;font-family:&amp;quot;Aptos&amp;quot;,sans-serif;mso-ascii-theme-font:minor-latin;&lt;br/&gt;mso-fareast-font-family:Aptos;mso-fareast-theme-font:minor-latin;mso-hansi-theme-font:&lt;br/&gt;minor-latin;mso-bidi-font-family:&amp;quot;Times New Roman&amp;quot;;mso-bidi-theme-font:minor-bidi;&lt;br/&gt;mso-ansi-language:CS;mso-fareast-language:EN-US;mso-bidi-language:AR-SA&quot; lang=&quot;CS&quot;&gt;1 0 0&lt;/span&gt;&lt;/div&gt;" style="ellipse;whiteSpace=wrap;html=1;rounded=0;shadow=1;comic=0;labelBackgroundColor=none;strokeWidth=1;fontFamily=Verdana;fontSize=12;align=center;" parent="1" vertex="1">
          <mxGeometry x="600" y="460" width="160" height="100" as="geometry" />
        </mxCell>
        <mxCell id="qXNxSR6KpyAMt4ffWlAI-18" style="rounded=0;orthogonalLoop=1;jettySize=auto;html=1;exitX=0;exitY=0;exitDx=0;exitDy=0;entryX=0.5;entryY=1;entryDx=0;entryDy=0;" parent="1" source="qXNxSR6KpyAMt4ffWlAI-15" target="1ea317790d2ca983-3" edge="1">
          <mxGeometry relative="1" as="geometry" />
        </mxCell>
        <mxCell id="qXNxSR6KpyAMt4ffWlAI-15" value="&lt;span style=&quot;font-size:10.0pt;line-height:&lt;br/&gt;107%;font-family:&amp;quot;Aptos&amp;quot;,sans-serif;mso-ascii-theme-font:minor-latin;&lt;br/&gt;mso-fareast-font-family:Aptos;mso-fareast-theme-font:minor-latin;mso-hansi-theme-font:&lt;br/&gt;minor-latin;mso-bidi-font-family:&amp;quot;Times New Roman&amp;quot;;mso-bidi-theme-font:minor-bidi;&lt;br/&gt;mso-ansi-language:CS;mso-fareast-language:EN-US;mso-bidi-language:AR-SA&quot; lang=&quot;CS&quot;&gt;VALIDATE/&lt;/span&gt;&lt;div&gt;&lt;span style=&quot;font-size:10.0pt;line-height:&lt;br/&gt;107%;font-family:&amp;quot;Aptos&amp;quot;,sans-serif;mso-ascii-theme-font:minor-latin;&lt;br/&gt;mso-fareast-font-family:Aptos;mso-fareast-theme-font:minor-latin;mso-hansi-theme-font:&lt;br/&gt;minor-latin;mso-bidi-font-family:&amp;quot;Times New Roman&amp;quot;;mso-bidi-theme-font:minor-bidi;&lt;br/&gt;mso-ansi-language:CS;mso-fareast-language:EN-US;mso-bidi-language:AR-SA&quot; lang=&quot;CS&quot;&gt;0 0 1&lt;/span&gt;&lt;/div&gt;" style="ellipse;whiteSpace=wrap;html=1;rounded=0;shadow=1;comic=0;labelBackgroundColor=none;strokeWidth=1;fontFamily=Verdana;fontSize=12;align=center;" parent="1" vertex="1">
          <mxGeometry x="280" y="460" width="160" height="100" as="geometry" />
        </mxCell>
        <mxCell id="qXNxSR6KpyAMt4ffWlAI-19" value="DATA_IN=0" style="text;html=1;align=center;verticalAlign=middle;resizable=0;points=[];autosize=1;strokeColor=none;fillColor=none;" parent="1" vertex="1">
          <mxGeometry x="300" y="270" width="90" height="30" as="geometry" />
        </mxCell>
        <mxCell id="qXNxSR6KpyAMt4ffWlAI-20" value="CLK_CNT=7" style="text;html=1;align=center;verticalAlign=middle;resizable=0;points=[];autosize=1;strokeColor=none;fillColor=none;" parent="1" vertex="1">
          <mxGeometry x="635" y="270" width="90" height="30" as="geometry" />
        </mxCell>
        <mxCell id="qXNxSR6KpyAMt4ffWlAI-21" value="BIT_CNT=8" style="text;html=1;align=center;verticalAlign=middle;resizable=0;points=[];autosize=1;strokeColor=none;fillColor=none;" parent="1" vertex="1">
          <mxGeometry x="785" y="398" width="90" height="30" as="geometry" />
        </mxCell>
        <mxCell id="qXNxSR6KpyAMt4ffWlAI-22" value="" style="endArrow=classic;html=1;rounded=0;exitX=0.452;exitY=0.008;exitDx=0;exitDy=0;exitPerimeter=0;edgeStyle=orthogonalEdgeStyle;curved=1;entryX=0.569;entryY=0.015;entryDx=0;entryDy=0;entryPerimeter=0;" parent="1" source="1ea317790d2ca983-4" target="1ea317790d2ca983-4" edge="1">
          <mxGeometry width="50" height="50" relative="1" as="geometry">
            <mxPoint x="530" y="370" as="sourcePoint" />
            <mxPoint x="580" y="320" as="targetPoint" />
            <Array as="points">
              <mxPoint x="520" y="200" />
            </Array>
          </mxGeometry>
        </mxCell>
        <mxCell id="qXNxSR6KpyAMt4ffWlAI-24" value="" style="endArrow=classic;html=1;rounded=0;exitX=0.448;exitY=-0.012;exitDx=0;exitDy=0;exitPerimeter=0;entryX=0.563;entryY=0;entryDx=0;entryDy=0;entryPerimeter=0;edgeStyle=orthogonalEdgeStyle;curved=1;" parent="1" source="1ea317790d2ca983-3" target="1ea317790d2ca983-3" edge="1">
          <mxGeometry width="50" height="50" relative="1" as="geometry">
            <mxPoint x="180" y="230" as="sourcePoint" />
            <mxPoint x="230" y="180" as="targetPoint" />
            <Array as="points">
              <mxPoint x="200" y="210" />
            </Array>
          </mxGeometry>
        </mxCell>
        <mxCell id="qXNxSR6KpyAMt4ffWlAI-25" value="" style="endArrow=classic;html=1;rounded=0;exitX=0.46;exitY=0.002;exitDx=0;exitDy=0;exitPerimeter=0;entryX=0.577;entryY=0.008;entryDx=0;entryDy=0;entryPerimeter=0;edgeStyle=orthogonalEdgeStyle;curved=1;" parent="1" source="qXNxSR6KpyAMt4ffWlAI-4" target="qXNxSR6KpyAMt4ffWlAI-4" edge="1">
          <mxGeometry width="50" height="50" relative="1" as="geometry">
            <mxPoint x="830" y="220" as="sourcePoint" />
            <mxPoint x="880" y="170" as="targetPoint" />
            <Array as="points">
              <mxPoint x="840" y="210" />
            </Array>
          </mxGeometry>
        </mxCell>
        <mxCell id="qXNxSR6KpyAMt4ffWlAI-26" value="" style="endArrow=classic;html=1;rounded=0;exitX=0.44;exitY=0.002;exitDx=0;exitDy=0;exitPerimeter=0;entryX=0.569;entryY=-0.012;entryDx=0;entryDy=0;entryPerimeter=0;edgeStyle=orthogonalEdgeStyle;curved=1;" parent="1" source="qXNxSR6KpyAMt4ffWlAI-14" target="qXNxSR6KpyAMt4ffWlAI-14" edge="1">
          <mxGeometry width="50" height="50" relative="1" as="geometry">
            <mxPoint x="530" y="370" as="sourcePoint" />
            <mxPoint x="580" y="320" as="targetPoint" />
            <Array as="points">
              <mxPoint x="680" y="420" />
            </Array>
          </mxGeometry>
        </mxCell>
        <mxCell id="qXNxSR6KpyAMt4ffWlAI-28" value="" style="endArrow=classic;html=1;rounded=0;entryX=0;entryY=0.5;entryDx=0;entryDy=0;" parent="1" target="1ea317790d2ca983-3" edge="1">
          <mxGeometry width="50" height="50" relative="1" as="geometry">
            <mxPoint x="40" y="300" as="sourcePoint" />
            <mxPoint x="180" y="320" as="targetPoint" />
          </mxGeometry>
        </mxCell>
        <mxCell id="qXNxSR6KpyAMt4ffWlAI-33" value="Else" style="text;html=1;align=center;verticalAlign=middle;resizable=0;points=[];autosize=1;strokeColor=none;fillColor=none;" parent="1" vertex="1">
          <mxGeometry x="175" y="201" width="50" height="30" as="geometry" />
        </mxCell>
        <mxCell id="qXNxSR6KpyAMt4ffWlAI-36" value="Else" style="text;html=1;align=center;verticalAlign=middle;resizable=0;points=[];autosize=1;strokeColor=none;fillColor=none;" parent="1" vertex="1">
          <mxGeometry x="495" y="198" width="50" height="30" as="geometry" />
        </mxCell>
        <mxCell id="qXNxSR6KpyAMt4ffWlAI-39" value="Else" style="text;html=1;align=center;verticalAlign=middle;resizable=0;points=[];autosize=1;strokeColor=none;fillColor=none;" parent="1" vertex="1">
          <mxGeometry x="655" y="412" width="50" height="30" as="geometry" />
        </mxCell>
        <mxCell id="qXNxSR6KpyAMt4ffWlAI-41" value="Else" style="text;html=1;align=center;verticalAlign=middle;resizable=0;points=[];autosize=1;strokeColor=none;fillColor=none;" parent="1" vertex="1">
          <mxGeometry x="817" y="204" width="50" height="30" as="geometry" />
        </mxCell>
        <mxCell id="qXNxSR6KpyAMt4ffWlAI-42" value="CLK_CNT=8, DATA_IN = 1" style="text;html=1;align=center;verticalAlign=middle;resizable=0;points=[];autosize=1;strokeColor=none;fillColor=none;" parent="1" vertex="1">
          <mxGeometry x="435" y="480" width="170" height="30" as="geometry" />
        </mxCell>
      </root>
    </mxGraphModel>
  </diagram>
</mxfile>
